{
    "asset" : {
        "generator" : "Khronos glTF Blender I/O v1.4.40",
        "version" : "2.0"
    },
    "scene" : 0,
    "scenes" : [
        {
            "name" : "Scene",
            "nodes" : [
                2
            ]
        }
    ],
    "nodes" : [
        {
            "mesh" : 0,
            "name" : "Wheel"
        },
        {
            "mesh" : 1,
            "name" : "WheelControl"
        },
        {
            "children" : [
                0,
                1
            ],
            "mesh" : 2,
            "name" : "Body"
        }
    ],
    "materials" : [
        {
            "doubleSided" : true,
            "name" : "Yellow",
            "pbrMetallicRoughness" : {
                "baseColorFactor" : [
                    1,
                    0.7543221116065979,
                    0.1504581719636917,
                    1
                ],
                "metallicFactor" : 0,
                "roughnessFactor" : 0.5
            }
        },
        {
            "doubleSided" : true,
            "name" : "Blue",
            "pbrMetallicRoughness" : {
                "baseColorFactor" : [
                    0,
                    0.5,
                    1,
                    1
                ],
                "metallicFactor" : 0,
                "roughnessFactor" : 0.4000000059604645
            }
        },
        {
            "doubleSided" : true,
            "name" : "DarkBlue",
            "pbrMetallicRoughness" : {
                "baseColorFactor" : [
                    0.02357030101120472,
                    0.11181588470935822,
                    0.2529434263706207,
                    1
                ],
                "metallicFactor" : 0,
                "roughnessFactor" : 0.4000000059604645
            }
        }
    ],
    "meshes" : [
        {
            "name" : "Cube.002",
            "primitives" : [
                {
                    "attributes" : {
                        "POSITION" : 0,
                        "NORMAL" : 1,
                        "TEXCOORD_0" : 2
                    },
                    "indices" : 3,
                    "material" : 0
                }
            ]
        },
        {
            "name" : "Cube.001",
            "primitives" : [
                {
                    "attributes" : {
                        "POSITION" : 4,
                        "NORMAL" : 5,
                        "TEXCOORD_0" : 6
                    },
                    "indices" : 7,
                    "material" : 1
                }
            ]
        },
        {
            "name" : "Cube",
            "primitives" : [
                {
                    "attributes" : {
                        "POSITION" : 8,
                        "NORMAL" : 9,
                        "TEXCOORD_0" : 10
                    },
                    "indices" : 11,
                    "material" : 2
                },
                {
                    "attributes" : {
                        "POSITION" : 12,
                        "NORMAL" : 13,
                        "TEXCOORD_0" : 14
                    },
                    "indices" : 15,
                    "material" : 1
                }
            ]
        }
    ],
    "accessors" : [
        {
            "bufferView" : 0,
            "componentType" : 5126,
            "count" : 240,
            "max" : [
                0.2377646118402481,
                0.49607884883880615,
                0.25
            ],
            "min" : [
                -0.23776432871818542,
                -0.003921210765838623,
                -0.2499999850988388
            ],
            "type" : "VEC3"
        },
        {
            "bufferView" : 1,
            "componentType" : 5126,
            "count" : 240,
            "type" : "VEC3"
        },
        {
            "bufferView" : 2,
            "componentType" : 5126,
            "count" : 240,
            "type" : "VEC2"
        },
        {
            "bufferView" : 3,
            "componentType" : 5123,
            "count" : 240,
            "type" : "SCALAR"
        },
        {
            "bufferView" : 4,
            "componentType" : 5126,
            "count" : 210,
            "max" : [
                0.4530711770057678,
                0.30385857820510864,
                0.451968789100647
            ],
            "min" : [
                -0.4469287693500519,
                0.20561504364013672,
                -0.44803115725517273
            ],
            "type" : "VEC3"
        },
        {
            "bufferView" : 5,
            "componentType" : 5126,
            "count" : 210,
            "type" : "VEC3"
        },
        {
            "bufferView" : 6,
            "componentType" : 5126,
            "count" : 210,
            "type" : "VEC2"
        },
        {
            "bufferView" : 7,
            "componentType" : 5123,
            "count" : 324,
            "type" : "SCALAR"
        },
        {
            "bufferView" : 8,
            "componentType" : 5126,
            "count" : 92,
            "max" : [
                0.5,
                1.608422875404358,
                0.5
            ],
            "min" : [
                -0.5,
                0.5429385304450989,
                -0.5
            ],
            "type" : "VEC3"
        },
        {
            "bufferView" : 9,
            "componentType" : 5126,
            "count" : 92,
            "type" : "VEC3"
        },
        {
            "bufferView" : 10,
            "componentType" : 5126,
            "count" : 92,
            "type" : "VEC2"
        },
        {
            "bufferView" : 11,
            "componentType" : 5123,
            "count" : 150,
            "type" : "SCALAR"
        },
        {
            "bufferView" : 12,
            "componentType" : 5126,
            "count" : 4,
            "max" : [
                0.35066255927085876,
                1.3936010599136353,
                0.48864084482192993
            ],
            "min" : [
                -0.35066255927085876,
                0.6922760009765625,
                0.48864084482192993
            ],
            "type" : "VEC3"
        },
        {
            "bufferView" : 13,
            "componentType" : 5126,
            "count" : 4,
            "type" : "VEC3"
        },
        {
            "bufferView" : 14,
            "componentType" : 5126,
            "count" : 4,
            "type" : "VEC2"
        },
        {
            "bufferView" : 15,
            "componentType" : 5123,
            "count" : 6,
            "type" : "SCALAR"
        }
    ],
    "bufferViews" : [
        {
            "buffer" : 0,
            "byteLength" : 2880,
            "byteOffset" : 0
        },
        {
            "buffer" : 0,
            "byteLength" : 2880,
            "byteOffset" : 2880
        },
        {
            "buffer" : 0,
            "byteLength" : 1920,
            "byteOffset" : 5760
        },
        {
            "buffer" : 0,
            "byteLength" : 480,
            "byteOffset" : 7680
        },
        {
            "buffer" : 0,
            "byteLength" : 2520,
            "byteOffset" : 8160
        },
        {
            "buffer" : 0,
            "byteLength" : 2520,
            "byteOffset" : 10680
        },
        {
            "buffer" : 0,
            "byteLength" : 1680,
            "byteOffset" : 13200
        },
        {
            "buffer" : 0,
            "byteLength" : 648,
            "byteOffset" : 14880
        },
        {
            "buffer" : 0,
            "byteLength" : 1104,
            "byteOffset" : 15528
        },
        {
            "buffer" : 0,
            "byteLength" : 1104,
            "byteOffset" : 16632
        },
        {
            "buffer" : 0,
            "byteLength" : 736,
            "byteOffset" : 17736
        },
        {
            "buffer" : 0,
            "byteLength" : 300,
            "byteOffset" : 18472
        },
        {
            "buffer" : 0,
            "byteLength" : 48,
            "byteOffset" : 18772
        },
        {
            "buffer" : 0,
            "byteLength" : 48,
            "byteOffset" : 18820
        },
        {
            "buffer" : 0,
            "byteLength" : 32,
            "byteOffset" : 18868
        },
        {
            "buffer" : 0,
            "byteLength" : 12,
            "byteOffset" : 18900
        }
    ],
    "buffers" : [
        {
            "byteLength" : 18912,
            "uri" : "data:application/octet-stream;base64,"
        }
    ]
}
